<svg width="102" height="102" viewBox="0 0 102 102" fill="none" xmlns="http://www.w3.org/2000/svg">
<g filter="url(#filter0_d)">
<circle cx="51" cy="39" r="31" fill="#2351F4"/>
</g>
<path fill-rule="evenodd" clip-rule="evenodd" d="M43.25 50.5833C44.8283 50.5833 46.1711 49.5746 46.6687 48.1667H57.1458C60.1488 48.1667 62.5833 45.7322 62.5833 42.7292C62.5833 39.7261 60.1488 37.2917 57.1458 37.2917H43.8541C42.1858 37.2917 40.8333 35.9392 40.8333 34.2708C40.8333 32.6025 42.1858 31.25 43.8541 31.25H47.5828L46.0205 32.8123L47.7294 34.5211L52.2088 30.0417L47.7294 25.5623L46.0205 27.2711L47.5828 28.8333H43.8541C40.8511 28.8333 38.4166 31.2678 38.4166 34.2708C38.4166 37.2739 40.8511 39.7083 43.8541 39.7083H57.1458C58.8142 39.7083 60.1666 41.0608 60.1666 42.7292C60.1666 44.3975 58.8142 45.75 57.1458 45.75H46.6687C46.1711 44.3421 44.8283 43.3333 43.25 43.3333C41.2479 43.3333 39.625 44.9563 39.625 46.9583C39.625 48.9604 41.2479 50.5833 43.25 50.5833ZM42.0416 46.9583C42.0416 46.291 42.5826 45.75 43.25 45.75C43.9173 45.75 44.4583 46.291 44.4583 46.9583C44.4583 47.6257 43.9173 48.1667 43.25 48.1667C42.5826 48.1667 42.0416 47.6257 42.0416 46.9583ZM57.75 26.4167C59.752 26.4167 61.375 28.0396 61.375 30.0417C61.375 32.0437 59.752 33.6667 57.75 33.6667C55.748 33.6667 54.125 32.0437 54.125 30.0417C54.125 28.0396 55.748 26.4167 57.75 26.4167ZM56.5416 30.0417C56.5416 29.3743 57.0826 28.8333 57.75 28.8333C58.4173 28.8333 58.9583 29.3743 58.9583 30.0417C58.9583 30.709 58.4173 31.25 57.75 31.25C57.0826 31.25 56.5416 30.709 56.5416 30.0417Z" fill="white"/>
<defs>
<filter id="filter0_d" x="0" y="0" width="102" height="102" filterUnits="userSpaceOnUse" color-interpolation-filters="sRGB">
<feFlood flood-opacity="0" result="BackgroundImageFix"/>
<feColorMatrix in="SourceAlpha" type="matrix" values="0 0 0 0 0 0 0 0 0 0 0 0 0 0 0 0 0 0 127 0"/>
<feOffset dy="12"/>
<feGaussianBlur stdDeviation="10"/>
<feColorMatrix type="matrix" values="0 0 0 0 0.135764 0 0 0 0 0.316729 0 0 0 0 0.958333 0 0 0 0.3 0"/>
<feBlend mode="normal" in2="BackgroundImageFix" result="effect1_dropShadow"/>
<feBlend mode="normal" in="SourceGraphic" in2="effect1_dropShadow" result="shape"/>
</filter>
</defs>
</svg>
