<svg width="33" height="33" viewBox="0 0 33 33" fill="none" xmlns="http://www.w3.org/2000/svg">
<path d="M4.125 11H28.875C29.2397 11 29.5894 10.8551 29.8473 10.5973C30.1051 10.3394 30.25 9.98967 30.25 9.625C30.25 9.26033 30.1051 8.91059 29.8473 8.65273C29.5894 8.39487 29.2397 8.25 28.875 8.25H4.125C3.76033 8.25 3.41059 8.39487 3.15273 8.65273C2.89487 8.91059 2.75 9.26033 2.75 9.625C2.75 9.98967 2.89487 10.3394 3.15273 10.5973C3.41059 10.8551 3.76033 11 4.125 11ZM28.875 22H4.125C3.76033 22 3.41059 22.1449 3.15273 22.4027C2.89487 22.6606 2.75 23.0103 2.75 23.375C2.75 23.7397 2.89487 24.0894 3.15273 24.3473C3.41059 24.6051 3.76033 24.75 4.125 24.75H28.875C29.2397 24.75 29.5894 24.6051 29.8473 24.3473C30.1051 24.0894 30.25 23.7397 30.25 23.375C30.25 23.0103 30.1051 22.6606 29.8473 22.4027C29.5894 22.1449 29.2397 22 28.875 22ZM28.875 15.125H4.125C3.76033 15.125 3.41059 15.2699 3.15273 15.5277C2.89487 15.7856 2.75 16.1353 2.75 16.5C2.75 16.8647 2.89487 17.2144 3.15273 17.4723C3.41059 17.7301 3.76033 17.875 4.125 17.875H28.875C29.2397 17.875 29.5894 17.7301 29.8473 17.4723C30.1051 17.2144 30.25 16.8647 30.25 16.5C30.25 16.1353 30.1051 15.7856 29.8473 15.5277C29.5894 15.2699 29.2397 15.125 28.875 15.125Z" fill="white"/>
</svg>
