<svg width="13" height="13" viewBox="0 0 13 13" fill="none" xmlns="http://www.w3.org/2000/svg">
<path d="M9.75002 7.58334C9.42999 7.58545 9.1144 7.65844 8.82594 7.79705C8.53748 7.93566 8.2833 8.13646 8.08169 8.385L5.31919 7.11209C5.44907 6.71437 5.44907 6.28564 5.31919 5.88792L8.08169 4.615C8.40756 5.00824 8.86187 5.27371 9.36443 5.36458C9.867 5.45545 10.3855 5.36588 10.8285 5.11166C11.2714 4.85744 11.6103 4.45493 11.7854 3.97516C11.9604 3.49538 11.9604 2.96919 11.7852 2.48945C11.6101 2.00971 11.2711 1.60726 10.8281 1.35312C10.3851 1.09899 9.86659 1.0095 9.36405 1.10047C8.8615 1.19143 8.40724 1.45699 8.08143 1.85028C7.75563 2.24357 7.57922 2.73931 7.58335 3.25C7.58498 3.37905 7.59767 3.50771 7.62127 3.63459L4.76127 4.95084C4.45635 4.65269 4.07024 4.45116 3.65129 4.37149C3.23234 4.29181 2.7992 4.33754 2.40613 4.50295C2.01306 4.66836 1.67754 4.94608 1.44161 5.30133C1.20568 5.65658 1.07983 6.07355 1.07983 6.5C1.07983 6.92646 1.20568 7.34343 1.44161 7.69868C1.67754 8.05393 2.01306 8.33165 2.40613 8.49706C2.7992 8.66246 3.23234 8.70819 3.65129 8.62852C4.07024 8.54885 4.45635 8.34732 4.76127 8.04917L7.62127 9.36542C7.59767 9.4923 7.58498 9.62096 7.58335 9.75C7.58335 10.1785 7.71043 10.5974 7.9485 10.9537C8.18658 11.31 8.52497 11.5878 8.92087 11.7517C9.31678 11.9157 9.75242 11.9586 10.1727 11.875C10.593 11.7914 10.9791 11.5851 11.2821 11.2821C11.5851 10.9791 11.7915 10.593 11.8751 10.1727C11.9587 9.75241 11.9157 9.31676 11.7518 8.92086C11.5878 8.52495 11.3101 8.18656 10.9538 7.94849C10.5974 7.71041 10.1785 7.58334 9.75002 7.58334ZM9.75002 2.16667C9.96428 2.16667 10.1737 2.23021 10.3519 2.34924C10.53 2.46828 10.6689 2.63748 10.7509 2.83543C10.8329 3.03338 10.8543 3.25121 10.8125 3.46135C10.7707 3.6715 10.6676 3.86453 10.5161 4.01604C10.3645 4.16754 10.1715 4.27072 9.96137 4.31252C9.75122 4.35432 9.5334 4.33287 9.33545 4.25087C9.13749 4.16888 8.9683 4.03002 8.84926 3.85187C8.73022 3.67372 8.66669 3.46427 8.66669 3.25C8.66669 2.96269 8.78082 2.68714 8.98399 2.48397C9.18715 2.28081 9.4627 2.16667 9.75002 2.16667ZM3.25002 7.58334C3.03576 7.58334 2.82631 7.5198 2.64815 7.40076C2.47 7.28172 2.33115 7.11253 2.24915 6.91458C2.16716 6.71662 2.1457 6.4988 2.1875 6.28866C2.2293 6.07851 2.33248 5.88548 2.48399 5.73397C2.63549 5.58246 2.82853 5.47929 3.03867 5.43749C3.24882 5.39569 3.46664 5.41714 3.66459 5.49913C3.86255 5.58113 4.03174 5.71998 4.15078 5.89814C4.26982 6.07629 4.33335 6.28574 4.33335 6.5C4.33335 6.78732 4.21922 7.06287 4.01605 7.26604C3.81289 7.4692 3.53734 7.58334 3.25002 7.58334ZM9.75002 10.8333C9.53576 10.8333 9.3263 10.7698 9.14815 10.6508C8.97 10.5317 8.83114 10.3625 8.74915 10.1646C8.66715 9.96662 8.6457 9.7488 8.6875 9.53866C8.7293 9.32851 8.83248 9.13548 8.98399 8.98397C9.13549 8.83246 9.32853 8.72929 9.53867 8.68749C9.74882 8.64569 9.96664 8.66714 10.1646 8.74913C10.3625 8.83113 10.5317 8.96998 10.6508 9.14814C10.7698 9.32629 10.8334 9.53574 10.8334 9.75C10.8334 10.0373 10.7192 10.3129 10.5161 10.516C10.3129 10.7192 10.0373 10.8333 9.75002 10.8333Z" fill="#FF1D58"/>
</svg>