<svg width="279" height="42" viewBox="0 0 279 42" fill="none" xmlns="http://www.w3.org/2000/svg">
<rect width="279" height="42" fill="black"/>
<path d="M50.3153 28L45.7073 15.994H47.0933L51.2513 26.902H50.7833L54.8693 16.03L56.2013 15.994L51.5933 28H50.3153ZM93.0128 28V15.994H96.9908C98.0348 15.994 98.8448 16.144 99.4208 16.444C99.9968 16.732 100.399 17.122 100.627 17.614C100.867 18.094 100.987 18.628 100.987 19.216C100.987 19.732 100.909 20.134 100.753 20.422C100.597 20.71 100.405 20.95 100.177 21.142C99.9608 21.322 99.7508 21.508 99.5468 21.7L99.4028 21.466C99.7148 21.574 100.051 21.754 100.411 22.006C100.771 22.246 101.077 22.576 101.329 22.996C101.581 23.416 101.707 23.95 101.707 24.598C101.707 25.402 101.533 26.056 101.185 26.56C100.837 27.052 100.333 27.418 99.6728 27.658C99.0248 27.886 98.2508 28 97.3508 28H93.0128ZM94.3088 26.794H97.4588C97.9748 26.794 98.4548 26.74 98.8988 26.632C99.3548 26.524 99.7208 26.308 99.9968 25.984C100.273 25.648 100.411 25.162 100.411 24.526C100.411 24.046 100.321 23.668 100.141 23.392C99.9608 23.104 99.7208 22.894 99.4208 22.762C99.1328 22.618 98.8088 22.528 98.4488 22.492C98.1008 22.444 97.7528 22.42 97.4048 22.42H94.3088V26.794ZM94.3088 21.196H97.2788C97.6748 21.196 98.0528 21.16 98.4128 21.088C98.7848 21.004 99.0908 20.83 99.3308 20.566C99.5708 20.29 99.6908 19.87 99.6908 19.306C99.6908 18.49 99.4628 17.944 99.0068 17.668C98.5508 17.38 97.9208 17.236 97.1168 17.236H94.3088V21.196ZM119.166 28V15.994H126.744V17.218H120.462V21.358H125.988V22.618H120.462V26.776H126.744V28H119.166ZM147.913 28L143.305 15.994H144.691L148.849 26.902H148.381L152.467 16.03L153.799 15.994L149.191 28H147.913ZM170.539 28V15.994H178.117V17.218H171.835V21.358H177.361V22.618H171.835V26.776H178.117V28H170.539ZM195.848 28V15.994H197.324L204.812 26.56L204.488 27.064V15.994H205.784V28H204.326L196.55 17.038L197.144 16.48V28H195.848ZM226.767 28V17.218H222.519V15.994H232.293V17.218H228.063V28H226.767Z" fill="white"/>
<path d="M71.3276 27.5342L73 17.5L74.6724 27.5342C74.713 27.7781 74.525 28 74.2778 28H71.7222C71.475 28 71.287 27.7781 71.3276 27.5342Z" fill="white"/>
<path d="M73 19L71.6009 16.6015C71.4454 16.3349 71.6377 16 71.9464 16H74.0536C74.3623 16 74.5547 16.3349 74.3991 16.6015L73 19Z" fill="white"/>
</svg>
