<svg width="220" height="219" viewBox="0 0 220 219" fill="none" xmlns="http://www.w3.org/2000/svg">
<path d="M38.3205 109.033L110 37.3535L181.679 109.033L110 180.712L38.3205 109.033Z" fill="white" stroke="black" stroke-width="0.5"/>
<path d="M110 56L163.033 109.033L110 162.066L56.967 109.033L110 56Z" fill="black"/>
<path d="M106.163 122.859L110 96L113.837 122.859C113.923 123.461 113.456 124 112.847 124H107.153C106.544 124 106.077 123.461 106.163 122.859Z" fill="white"/>
<path d="M110 100L106.724 93.4472C106.391 92.7823 106.875 92 107.618 92L112.382 92C113.125 92 113.609 92.7823 113.276 93.4472L110 100Z" fill="white"/>
</svg>
