<svg width="375" height="42" viewBox="0 0 375 42" fill="none" xmlns="http://www.w3.org/2000/svg">
<path d="M10.1305 35L0.914534 10.988H3.68653L12.0025 32.804H11.0665L19.2385 11.06L21.9025 10.988L12.6865 35H10.1305ZM95.5256 35V10.988H103.482C105.57 10.988 107.19 11.288 108.342 11.888C109.494 12.464 110.298 13.244 110.754 14.228C111.234 15.188 111.474 16.256 111.474 17.432C111.474 18.464 111.318 19.268 111.006 19.844C110.694 20.42 110.31 20.9 109.854 21.284C109.422 21.644 109.002 22.016 108.594 22.4L108.306 21.932C108.93 22.148 109.602 22.508 110.322 23.012C111.042 23.492 111.654 24.152 112.158 24.992C112.662 25.832 112.914 26.9 112.914 28.196C112.914 29.804 112.566 31.112 111.87 32.12C111.174 33.104 110.166 33.836 108.846 34.316C107.55 34.772 106.002 35 104.202 35H95.5256ZM98.1176 32.588H104.418C105.45 32.588 106.41 32.48 107.298 32.264C108.21 32.048 108.942 31.616 109.494 30.968C110.046 30.296 110.322 29.324 110.322 28.052C110.322 27.092 110.142 26.336 109.782 25.784C109.422 25.208 108.942 24.788 108.342 24.524C107.766 24.236 107.118 24.056 106.398 23.984C105.702 23.888 105.006 23.84 104.31 23.84H98.1176V32.588ZM98.1176 21.392H104.058C104.85 21.392 105.606 21.32 106.326 21.176C107.07 21.008 107.682 20.66 108.162 20.132C108.642 19.58 108.882 18.74 108.882 17.612C108.882 15.98 108.426 14.888 107.514 14.336C106.602 13.76 105.342 13.472 103.734 13.472H98.1176V21.392ZM147.831 35V10.988H162.987V13.436H150.423V21.716H161.475V24.236H150.423V32.552H162.987V35H147.831ZM205.325 35L196.109 10.988H198.881L207.197 32.804H206.261L214.433 11.06L217.097 10.988L207.881 35H205.325ZM250.579 35V10.988H265.735V13.436H253.171V21.716H264.223V24.236H253.171V32.552H265.735V35H250.579ZM301.197 35V10.988H304.149L319.125 32.12L318.477 33.128V10.988H321.069V35H318.153L302.601 13.076L303.789 11.96V35H301.197ZM363.033 35V13.436H354.537V10.988H374.085V13.436H365.625V35H363.033Z" fill="black"/>
<path d="M56.1631 33.8586L59 14L61.8369 33.8586C61.923 34.461 61.4555 35 60.847 35H57.153C56.5445 35 56.077 34.461 56.1631 33.8586Z" fill="black"/>
<path d="M59 17L56.7236 12.4472C56.3912 11.7823 56.8747 11 57.618 11H60.382C61.1253 11 61.6088 11.7823 61.2764 12.4472L59 17Z" fill="black"/>
</svg>
