<svg width="379" height="42" viewBox="0 0 379 42" fill="none" xmlns="http://www.w3.org/2000/svg">
<path d="M23.5496 10.988L14.2616 35H10.1216L1.01357 10.988H5.47757L12.4616 30.356L19.3736 11.024L23.5496 10.988ZM110.934 22.148C112.182 22.58 113.202 23.288 113.994 24.272C114.786 25.256 115.182 26.504 115.182 28.016C115.182 30.368 114.39 32.12 112.806 33.272C111.222 34.424 109.074 35 106.362 35H96.6417V10.988H105.534C108.342 10.988 110.418 11.552 111.762 12.68C113.13 13.808 113.814 15.416 113.814 17.504C113.814 18.68 113.55 19.616 113.022 20.312C112.518 20.984 111.822 21.596 110.934 22.148ZM100.602 20.996H106.002C107.13 20.996 108.042 20.768 108.738 20.312C109.458 19.856 109.818 19.028 109.818 17.828C109.818 16.556 109.458 15.656 108.738 15.128C108.042 14.6 107.022 14.336 105.678 14.336H100.602V20.996ZM106.326 31.688C107.79 31.688 108.954 31.412 109.818 30.86C110.682 30.284 111.114 29.276 111.114 27.836C111.114 26.396 110.658 25.436 109.746 24.956C108.858 24.452 107.682 24.2 106.218 24.2H100.638V31.688H106.326ZM149.615 10.988H165.347V14.336H153.611V21.284H163.835V24.668H153.575V31.652H165.347V35H149.615V10.988ZM220.713 10.988L211.425 35H207.285L198.177 10.988H202.641L209.625 30.356L216.537 11.024L220.713 10.988ZM253.874 10.988H269.606V14.336H257.87V21.284H268.094V24.668H257.834V31.652H269.606V35H253.874V10.988ZM325.008 10.988V35H321.444L308.448 17.144V35H304.668V10.988H308.484L321.228 28.628V10.988H325.008ZM366.072 14.336H358.332V10.988H377.808V14.336H370.032V35H366.072V14.336Z" fill="black"/>
<path d="M53.2261 33.8129L57 14L60.7739 33.8129C60.8913 34.4291 60.4189 35 59.7915 35H54.2085C53.5811 35 53.1087 34.4291 53.2261 33.8129Z" fill="black"/>
<path d="M57 17L54.0365 12.5547C53.5934 11.8901 54.0698 11 54.8685 11H59.1315C59.9302 11 60.4066 11.8901 59.9635 12.5547L57 17Z" fill="black"/>
</svg>
